<svg version="1.2" xmlns="http://www.w3.org/2000/svg" viewBox="0 0 123 123" width="123" height="123">
	<title>fullscreen-button-svg</title>
	<style>
		.s0 { fill: #ffffff } 
		.s1 { fill: #0080bb } 
	</style>
	<g id="Layer 1">
		<g id="Layer 1">
			<path id="Shape 1" fill-rule="evenodd" class="s0" d="m96.7 27.9v66h-70.3v-66z"/>
			<path fill-rule="evenodd" class="s1" d="m61.4 2.3c24 0 45.5 14.5 54.7 36.5 9.1 22.1 4.1 47.5-12.8 64.5-17 16.9-42.4 21.9-64.5 12.8-22-9.2-36.5-30.7-36.5-54.7 0-7.7 1.6-15.4 4.5-22.6 2.9-7.2 7.3-13.7 12.8-19.2 5.5-5.5 12-9.9 19.2-12.8 7.2-2.9 14.9-4.5 22.6-4.5zm-26.2 48.5c0 0.7-0.3 1.5-0.9 2.1-0.7 0.6-1.4 0.9-2.3 0.9-0.8 0-1.6-0.3-2.2-0.9-0.5-0.6-0.9-1.4-0.9-2.1v-14.5q0-0.6 0.3-1.1 0.1-0.8 0.6-1.2 0.5-0.5 1-0.6 0.7-0.3 1.2-0.3h14.8c0.8 0 1.5 0.3 2.2 0.9 0.5 0.7 0.9 1.4 0.9 2.3 0 0.8-0.4 1.6-0.9 2.2-0.7 0.5-1.4 0.9-2.2 0.9h-7l12.5 12.5c0.6 0.8 1 1.6 1 2.3 0 0.8-0.4 1.7-1 2.3-0.5 0.5-1.3 0.9-2.2 0.9-0.9 0-1.6-0.4-2.1-0.9l-12.8-12.6v6.7zm12.9 34.4c0.8 0 1.5 0.4 2.2 1.1 0.5 0.5 0.9 1.2 0.9 2.1 0 0.8-0.4 1.6-0.9 2.2-0.7 0.6-1.4 0.9-2.2 1h-14.5q-0.5 0-1.1-0.2-0.5-0.3-1-0.7-0.4-0.5-0.7-1.1-0.2-0.5-0.2-1.2v-14.7c-0.2-0.9 0.2-1.6 0.9-2.1 0.5-0.8 1.4-1.1 2.1-1.1 0.9 0 1.7 0.3 2.3 1.1 0.7 0.5 0.9 1.2 0.9 2.1v7.1l12.7-12.7c0.5-0.5 1.3-0.9 2.2-0.9 0.9 0 1.6 0.4 2.1 0.9 0.8 0.6 1.1 1.4 1.1 2.3 0 0.8-0.3 1.5-1.1 2.2l-12.5 12.6zm39.5-12.9c0-0.7 0.4-1.5 1-2.1 0.6-0.6 1.3-0.9 2.2-0.9 0.9 0 1.7 0.3 2.2 0.9 0.8 0.6 1 1.4 1 2.1v14.5q0 0.6-0.2 1.1-0.3 0.7-0.8 1.2-0.4 0.4-0.9 0.6-0.6 0.3-1.3 0.3h-14.6c-0.9 0-1.6-0.4-2.3-0.9-0.5-0.8-0.9-1.6-0.9-2.3 0-0.8 0.4-1.7 0.9-2.3 0.7-0.5 1.4-0.9 2.3-0.9l7.1 0.1-12.7-12.5c-0.6-0.8-1-1.6-1-2.3 0-0.8 0.4-1.7 1-2.3 0.5-0.5 1.3-0.9 2.2-0.9 0.9 0 1.7 0.4 2.3 0.9l12.5 12.5zm-12.8-34.4c-0.9 0-1.6-0.4-2-0.9-0.7-0.6-0.9-1.4-0.9-2.3 0-0.8 0.2-1.5 0.9-2 0.4-0.7 1.1-1.1 2-1.1h14.4q0.7 0 1.2 0.3 0.7 0.1 1.1 0.6 0.3 0.6 0.7 1.1 0.1 0.6 0.1 1.1v14.7c0 0.9-0.2 1.7-0.8 2.3-0.7 0.7-1.5 0.9-2.3 0.9-0.8 0-1.7-0.2-2.2-0.9-0.7-0.6-1-1.4-1-2.3v-6.9l-12.4 12.5c-0.7 0.7-1.5 0.9-2.3 0.9-0.9 0-1.7-0.2-2.2-0.9-0.7-0.6-1-1.4-1-2.3 0-0.7 0.3-1.6 1-2.1l12.5-12.7z"/>
		</g>
	</g>
</svg>